<svg enable-background="new 0 0 512 512" height="512" viewBox="0 0 512 512" width="512" xmlns="http://www.w3.org/2000/svg"><path d="m499.161 364.63s-63.554 171.386-282.354 131.488c-3.443-.641-6.745-1.838-10.089-2.849-.782-.229-1.572-.479-2.354-.703-3.285-1.022-6.537-2.07-9.769-3.197-.37-.129-.723-.25-1.098-.383-2.944-1.035-5.872-2.134-8.762-3.244-.757-.295-1.51-.582-2.263-.89-3.114-1.23-6.212-2.516-9.277-3.859-.565-.249-1.11-.499-1.684-.752-2.683-1.193-5.332-2.429-7.959-3.685-.682-.346-1.368-.666-2.055-.99-.374-.187-.777-.374-1.16-.565-1.696-.848-3.352-1.729-5.023-2.604-1.289-.665-2.599-1.313-3.88-2-2.366-1.289-4.699-2.599-7.02-3.938-.861-.491-1.73-.965-2.583-1.46-3.152-1.854-6.271-3.78-9.344-5.727-.869-.557-1.729-1.147-2.586-1.722-2.004-1.297-4.009-2.595-5.972-3.95-.208-.142-.407-.291-.611-.437-.761-.516-1.484-1.044-2.241-1.593-2.071-1.439-4.121-2.911-6.15-4.408-.981-.74-1.959-1.484-2.932-2.229-1.838-1.402-3.667-2.837-5.481-4.284-.902-.723-1.817-1.438-2.719-2.17-2.212-1.822-4.417-3.677-6.575-5.548-.408-.357-.84-.707-1.256-1.081-.042-.017-.071-.05-.117-.088-2.449-2.146-4.853-4.346-7.236-6.591-.719-.657-1.435-1.36-2.158-2.05-1.78-1.71-3.543-3.432-5.277-5.178-.72-.707-1.431-1.422-2.121-2.138-2.241-2.304-4.454-4.611-6.616-6.97-.079-.107-.158-.17-.253-.274-.038-.041-.092-.096-.129-.142-2.212-2.437-4.383-4.928-6.508-7.427-.595-.703-1.193-1.422-1.78-2.133-1.584-1.909-3.144-3.813-4.674-5.743-.636-.803-1.272-1.613-1.9-2.42-1.717-2.217-3.414-4.45-5.057-6.721-.308-.424-.636-.84-.932-1.256-.063-.07-.116-.146-.158-.216-1.904-2.633-3.742-5.315-5.547-8.001-.561-.824-1.089-1.672-1.63-2.521-1.306-1.987-2.587-3.976-3.826-5.988-.648-1.031-1.264-2.066-1.888-3.103-1.127-1.879-2.229-3.759-3.298-5.655-.611-1.073-1.214-2.121-1.805-3.223-.329-.582-.686-1.182-1.006-1.792-.562-1.016-1.069-2.075-1.618-3.111-.848-1.626-1.709-3.26-2.528-4.915-34.557-69.094-40.196-153.694 5.048-218.723l35.314-44.789c-39.843 77.007-21.936 170.778 27.908 238.76 1.8 2.475 3.643 4.916 5.526 7.356.583.736 1.168 1.477 1.751 2.184 1.567 1.996 3.168 3.967 4.786 5.918.583.686 1.152 1.359 1.747 2.066 2.163 2.554 4.375 5.09 6.646 7.564.108.12.212.229.316.345 2.146 2.342 4.333 4.653 6.558 6.933.69.698 1.393 1.389 2.096 2.088 1.747 1.783 3.531 3.514 5.344 5.235.686.682 1.376 1.339 2.088 2.017 2.449 2.279 4.919 4.545 7.435 6.758.262.229.532.44.773.652 2.329 2.025 4.687 3.997 7.074 5.96.832.678 1.68 1.355 2.528 2.029 1.875 1.509 3.772 2.978 5.681 4.437.911.699 1.846 1.41 2.791 2.108 2.075 1.539 4.171 3.053 6.288 4.55.719.486 1.418 1.015 2.146 1.505 2.188 1.514 4.417 2.986 6.654 4.425.84.558 1.672 1.14 2.52 1.681 3.086 1.954 6.205 3.875 9.357 5.73.811.466 1.622.902 2.42 1.352 2.379 1.376 4.762 2.731 7.19 4.029 1.314.731 2.666 1.393 3.996 2.096 1.988 1.023 3.976 2.063 5.988 3.044.761.374 1.501.724 2.246 1.077 2.566 1.235 5.14 2.425 7.743 3.605.616.267 1.214.545 1.834.811 3.032 1.327 6.096 2.6 9.186 3.817.794.316 1.589.62 2.387.937 2.811 1.089 5.643 2.146 8.508 3.156.445.158.89.32 1.322.478 3.194 1.099 6.408 2.146 9.648 3.136.827.258 1.655.508 2.503.757 3.318.981 6.616 2.042 10.018 2.812 89.773 20.431 184.517 2.083 237.895-67.46zm-316.721-109.872c4.907 7.024 10.338 15.386 16.846 21.031 2.354 2.598 4.824 5.13 7.34 7.621.632.648 1.285 1.272 1.938 1.908 2.437 2.371 4.932 4.704 7.494 6.97.108.079.204.188.308.263.029.033.054.041.075.074 2.845 2.487 5.781 4.887 8.758 7.244.662.508 1.318 1.036 1.988 1.552 2.99 2.291 6.039 4.545 9.166 6.69.096.066.17.134.266.2 1.376.956 2.782 1.846 4.175 2.761.674.433 1.31.898 1.983 1.306 2.237 1.435 4.496 2.828 6.795 4.167.325.2.641.366.961.553 1.975 1.14 3.992 2.267 6.005 3.356.698.391 1.414.74 2.129 1.114 1.389.724 2.786 1.468 4.2 2.171.212.1.433.199.637.287 2.882 1.418 5.788 2.79 8.762 4.079.632.283 1.289.532 1.934.799 2.375 1.006 4.77 1.992 7.178 2.915 1.022.387 2.059.757 3.073 1.127 2.191.815 4.383 1.556 6.595 2.296 1.003.319 1.984.648 2.986.956 3.144.973 6.254 2.212 9.535 2.753 168.934 27.991 207.933-102.078 207.933-102.078-35.16 50.633-103.243 74.791-175.897 55.936-3.223-.849-6.403-1.776-9.56-2.77-.974-.292-1.922-.607-2.883-.928-2.245-.728-4.479-1.501-6.694-2.308-1.011-.37-2.025-.74-3.02-1.123-2.425-.932-4.824-1.896-7.198-2.902-.653-.283-1.306-.533-1.942-.824-2.981-1.299-5.917-2.663-8.812-4.094-1.493-.729-2.953-1.499-4.425-2.254-.849-.437-1.701-.875-2.549-1.312-1.88-1.021-3.751-2.08-5.594-3.154-.437-.252-.894-.491-1.339-.755-2.283-1.339-4.537-2.718-6.77-4.134-.687-.438-1.352-.915-2.038-1.366-1.477-.954-2.944-1.921-4.392-2.902-3.11-2.146-6.138-4.399-9.128-6.678-.69-.543-1.376-1.073-2.059-1.616-31.796-25.111-57-59.423-68.994-98.33-12.555-40.352-9.847-85.647 11.914-122.406l-26.735 37.738c-32.715 47.085-30.939 110.113-5.419 159.91 4.286 8.349 9.097 16.445 14.474 24.157zm178.06-58.252c1.393.52 2.782.981 4.191 1.458.616.189 1.231.401 1.851.584 1.988.626 3.963 1.352 6.018 1.738 93.284 18.023 118.58-47.869 125.317-57.566-22.165 31.91-59.405 39.57-105.111 28.481-3.605-.881-7.572-2.185-11.058-3.416-4.462-1.591-8.849-3.404-13.124-5.456-8.121-3.899-15.848-8.629-23.025-14.045-40.891-31.029-66.291-90.221-39.61-138.425l-14.439 19.901c-19.287 28.386-21.179 63.638-7.801 94.991 14.114 33.274 43.036 59.381 76.791 71.755z"/></svg>